<?xml version="1.0" standalone="no"?>
<!DOCTYPE svg PUBLIC "-//W3C//DTD SVG 20010904//EN"
 "http://www.w3.org/TR/2001/REC-SVG-20010904/DTD/svg10.dtd">
<svg version="1.0" xmlns="http://www.w3.org/2000/svg"
 width="512.000000pt" height="512.000000pt" viewBox="0 0 512.000000 512.000000"
 preserveAspectRatio="xMidYMid meet">
<metadata>
Created by potrace 1.11, written by Peter Selinger 2001-2013
</metadata>
<g transform="translate(0.000000,512.000000) scale(0.100000,-0.100000)"
fill="#000000" stroke="none">
<path d="M0 2560 l0 -2560 2560 0 2560 0 0 2560 0 2560 -2560 0 -2560 0 0
-2560z m3030 1685 c280 -30 575 -86 832 -159 185 -53 498 -161 498 -172 0 -8
-91 -188 -99 -196 -4 -5 -44 8 -88 26 -704 297 -1613 385 -2428 235 -281 -52
-618 -154 -872 -266 -8 -3 -31 32 -63 98 l-50 103 22 12 c41 21 373 132 504
168 325 89 657 144 1024 170 117 8 582 -4 720 -19z m-668 -536 c95 -116 179
-218 186 -227 8 -11 15 -13 20 -6 4 5 87 108 185 227 122 148 185 217 198 217
11 0 86 -7 166 -15 346 -37 743 -139 1017 -264 67 -30 67 -31 52 -53 -34 -49
-153 -160 -220 -207 -70 -48 -226 -131 -246 -131 -5 0 -10 12 -10 27 0 41 -38
110 -78 143 -46 38 -103 57 -222 75 -108 17 -350 20 -350 5 0 -8 -125 -718
-310 -1760 -33 -184 -88 -494 -122 -687 -34 -194 -64 -353 -68 -353 -3 0 -20
82 -38 183 -30 169 -128 722 -273 1532 -33 187 -91 510 -128 719 l-67 378
-129 -1 c-297 -4 -445 -54 -496 -165 -10 -23 -19 -53 -19 -68 0 -16 -5 -28
-10 -28 -20 0 -176 83 -246 131 -67 47 -186 158 -220 207 -15 22 -15 23 52 53
135 62 331 128 514 174 200 50 510 100 647 104 l42 1 173 -211z"/>
</g>
</svg>
